<?xml version="1.0" encoding="UTF-8" standalone="no"?>
<svg width="186px" height="55px" viewBox="0 0 186 55" version="1.1" xmlns="http://www.w3.org/2000/svg" xmlns:xlink="http://www.w3.org/1999/xlink" xmlns:sketch="http://www.bohemiancoding.com/sketch/ns">
    <!-- Generator: "Sketch Internal" 3.0 (7561) - http://www.bohemiancoding.com/sketch -->
    <title>Google Play</title>
    <description>Created with "Sketch Internal".</description>
    <defs></defs>
    <g id="Page-1" stroke="none" stroke-width="1" fill="none" fill-rule="evenodd" sketch:type="MSPage">
        <g id="Google-Play" sketch:type="MSLayerGroup">
            <rect id="Background" fill="#21739F" sketch:type="MSShapeGroup" x="0" y="0" width="186" height="55" rx="8"></rect>
            <path d="M119.678954,33.2880545 C120.156975,33.1136182 120.405249,32.9630364 120.405249,32.6126727 C120.405249,31.6085455 119.274305,30.4478727 117.926213,30.4478727 C116.926447,30.4478727 115.051421,31.2306 115.051421,33.9477818 C115.051421,34.3726909 115.101076,34.8236909 115.127015,35.2754364 L119.678954,33.2880545 L119.678954,33.2880545 Z M123.225939,39.6497636 L122.029777,40.7843455 C121.754081,40.9371636 121.479127,41.1145818 121.204914,41.2405636 C120.374122,41.62 119.529249,41.7154182 118.777756,41.7154182 C117.978832,41.7154182 116.727086,41.6639818 115.449401,40.7344 C113.674426,39.4760727 112.898477,37.315 112.898477,35.4304909 C112.898477,31.5302727 116.054893,29.6181818 118.628792,29.6181818 C119.529249,29.6181818 120.453421,29.8440545 121.204914,30.3226364 C122.453695,31.1530727 122.777563,32.2332364 122.956914,32.8124545 L117.076893,35.2016364 L115.152213,35.3522182 C115.775492,38.5494727 117.926213,40.4093818 120.302975,40.4093818 C121.490244,40.4093818 122.371431,40.0202545 123.17999,39.6184545 C123.17999,39.6184545 123.342294,39.5327273 123.225939,39.6497636 Z M110.933036,39.4544545 C110.933036,40.4317455 111.107198,40.5845636 111.928355,40.6606 C112.356721,40.7112909 112.784345,40.7344 113.206782,40.7843455 L112.281868,41.3382182 L107.874447,41.3382182 C108.452518,40.5845636 108.551827,40.5092727 108.551827,40.0060909 L108.551827,39.4447636 L108.542193,24.4887091 L106.59602,24.4887091 L108.468822,23.5807455 L112.045452,23.5807455 C111.270985,24.0317455 111.039015,24.3068182 110.938964,25.1872 L110.933036,39.4544545 Z M67.5940102,40.7910545 L64.241198,41.5626 C62.882731,41.7780364 61.6628528,41.9681273 60.3710863,41.9681273 C53.9033604,41.9681273 51.4398883,37.1793273 51.4398883,33.4326727 C51.4398883,28.8555818 54.9312893,24.6132 60.9098782,24.6132 C62.1749645,24.6132 63.3926193,24.8003091 64.5013299,25.1037091 C66.2585178,25.6009273 67.0804162,26.2122 67.5940102,26.5715091 L65.6463553,28.4321636 L64.825198,28.6170364 L65.4106802,27.6777636 C64.6169442,26.8987636 63.1599086,25.4607818 60.3933198,25.4607818 C56.6944061,25.4607818 53.9033604,28.2890364 53.9033604,32.4181091 C53.9033604,36.8535636 57.0901624,41.0243818 62.2001624,41.0243818 C63.701665,41.0243818 64.4746497,40.7209818 65.1757462,40.4377091 L65.1757462,36.6366364 L61.6361726,36.8274727 L63.5126802,35.8136545 L68.4803858,35.8136545 L67.8734112,36.4018182 C67.7088832,36.5427091 67.6873909,36.5896727 67.6407005,36.7775273 C67.6162437,36.9922182 67.5940102,37.6750545 67.5940102,37.9150909 L67.5940102,40.7910545 Z M141.492244,25.3586545 L142.756589,25.3586545 L142.756589,41.6624909 L141.492244,41.6624909 L141.492244,25.3586545 Z M156.951939,45.1102182 C157.221706,45.2309818 157.684162,45.3062727 157.976904,45.3062727 C158.750629,45.3062727 159.289421,44.9879636 159.773371,43.8630727 L160.696061,41.7608909 L155.712051,29.8604545 L157.123878,29.8604545 L161.39864,40.1730727 L165.631898,29.8604545 L167.062995,29.8604545 L160.985096,44.2574182 C160.354406,45.7416182 159.362051,46.4550182 157.998396,46.4550182 C157.590041,46.4550182 157.050508,46.3812182 156.734051,46.2835636 L156.951939,45.1102182 Z M51.4087614,11.9837091 C51.4087614,9.47823636 53.2593299,7.86730909 55.5612386,7.86730909 C57.1035025,7.86730909 58.1114213,8.6068 58.7406294,9.51401818 L57.6133909,10.1707636 C57.1865076,9.57365455 56.4387208,9.10849091 55.5612386,9.10849091 C53.9952589,9.10849091 52.8324467,10.3012182 52.8324467,11.9837091 C52.8324467,13.6423455 53.9952589,14.8596727 55.5612386,14.8596727 C56.3675736,14.8596727 57.0790457,14.4899273 57.4355228,14.1440364 L57.4355228,12.9140364 L55.0632081,12.9140364 L55.0632081,11.6855273 L58.8110355,11.6855273 L58.8110355,14.6561636 C58.0402741,15.5276 56.9248934,16.1120364 55.5612386,16.1120364 C53.2593299,16.1120364 51.4087614,14.478 51.4087614,11.9837091 Z M60.528203,15.9569818 L60.528203,7.99850909 L65.948731,7.99850909 L65.948731,9.22776364 L61.9155736,9.22776364 L61.9155736,11.28 L65.866467,11.28 L65.866467,12.5085091 L61.9155736,12.5085091 L61.9155736,14.7284727 L65.948731,14.7284727 L65.948731,15.9569818 L60.528203,15.9569818 Z M69.7899391,15.9569818 L69.7899391,9.22776364 L67.3931675,9.22776364 L67.3931675,7.99850909 L73.5733401,7.99850909 L73.5733401,9.22776364 L71.1780508,9.22776364 L71.1780508,15.9569818 L69.7899391,15.9569818 Z M78.3980102,7.99850909 L79.7853807,7.99850909 L79.7853807,15.9577273 L78.3980102,15.9577273 L78.3980102,7.99850909 Z M83.6510457,15.9569818 L83.6510457,9.22776364 L81.2550152,9.22776364 L81.2550152,7.99850909 L87.4344467,7.99850909 L87.4344467,9.22776364 L85.0391574,9.22776364 L85.0391574,15.9569818 L83.6510457,15.9569818 Z M107.142223,15.9569818 L103.014203,10.2661818 L103.014203,15.9569818 L101.626832,15.9569818 L101.626832,7.99850909 L103.050518,7.99850909 L107.095533,13.5111455 L107.095533,7.99850909 L108.483645,7.99850909 L108.483645,15.9569818 L107.142223,15.9569818 Z M103.04533,37.2397091 C103.623401,36.6597455 103.673797,35.8576364 103.673797,35.4014182 C103.673797,33.5929455 102.60066,30.7743818 100.522569,30.7743818 C99.8740914,30.7743818 99.1707716,31.1023818 98.7720508,31.6085455 C98.3496142,32.1326 98.2228832,32.8124545 98.2228832,33.4662182 C98.2228832,35.1502 99.198934,37.9449091 101.348173,37.9449091 C101.975157,37.9449091 102.649574,37.6377818 103.04533,37.2397091 Z M102.325706,42.0195636 C102.121157,41.9927273 101.998132,41.9927273 101.750599,41.9927273 C101.523817,41.9927273 100.172761,42.0426727 99.1263046,42.3952727 C98.5726904,42.5995273 96.9726193,43.2003636 96.9726193,44.9879636 C96.9726193,46.7703455 98.7001624,48.0562545 101.372629,48.0562545 C103.773107,48.0562545 105.048569,46.8985636 105.048569,45.3398182 C105.048569,44.0576364 104.223706,43.3807636 102.325706,42.0195636 L102.325706,42.0195636 Z M104.098457,30.8526545 C104.672081,31.3267636 105.870467,32.3346182 105.870467,34.2467091 C105.870467,36.1096 104.826234,36.987 103.773107,37.8181818 C103.450721,38.1454364 103.072751,38.5010182 103.072751,39.0496727 C103.072751,39.6057818 103.450721,39.9076909 103.722711,40.1328182 L104.626132,40.8342909 C105.724467,41.7668545 106.725716,42.6226364 106.725716,44.3588 C106.725716,46.7256182 104.448264,49.1110727 100.146822,49.1110727 C96.5227614,49.1110727 94.7707614,47.3756545 94.7707614,45.5142545 C94.7707614,44.6077818 95.2183959,43.3248545 96.697665,42.4459636 C98.2480812,41.4925273 100.349147,41.3650545 101.474162,41.2912545 C101.122873,40.8342909 100.721929,40.3572 100.721929,39.5774545 C100.721929,39.1510545 100.849401,38.8968545 100.972426,38.5971818 C100.698954,38.6232727 100.423259,38.6501091 100.172761,38.6501091 C97.5203046,38.6501091 96.0202843,36.6597455 96.0202843,34.6977091 C96.0202843,33.5407636 96.5449949,32.2578364 97.6225787,31.3267636 C99.0484873,30.1459636 100.748609,29.9424545 102.100406,29.9424545 L107.254132,29.9424545 L105.651838,30.8526545 L104.098457,30.8526545 L104.098457,30.8526545 Z M91.7203249,39.6281455 C92.3250761,38.8230545 92.4710761,37.8181818 92.4710761,36.8386545 C92.4710761,34.6231636 91.4216548,30.3979273 88.3208223,30.3979273 C87.4952183,30.3979273 86.6644264,30.7222 86.0663452,31.2522182 C85.0888122,32.1326 84.9153909,33.2381091 84.9153909,34.3234909 C84.9153909,36.8088364 86.1360102,40.9080909 89.1671777,40.9080909 C90.1461929,40.9080909 91.143736,40.4317455 91.7203249,39.6281455 L91.7203249,39.6281455 Z M88.5928122,41.6639818 C84.6174619,41.6639818 82.4904569,38.5494727 82.4904569,35.7309091 C82.4904569,32.4367455 85.1644061,29.6181818 88.9678173,29.6181818 C92.6444975,29.6181818 94.9471472,32.5127818 94.9471472,35.5534909 C94.9471472,38.5218909 92.6711777,41.6639818 88.5928122,41.6639818 L88.5928122,41.6639818 Z M78.4113503,39.6281455 C79.0109137,38.8230545 79.1606193,37.8181818 79.1606193,36.8386545 C79.1606193,34.6231636 78.1082335,30.3979273 75.0103655,30.3979273 C74.1825381,30.3979273 73.3606396,30.7222 72.760335,31.2522182 C71.7813198,32.1326 71.6086396,33.2381091 71.6086396,34.3234909 C71.6086396,36.8088364 72.8344467,40.9080909 75.8604264,40.9080909 C76.8372183,40.9080909 77.8332792,40.4317455 78.4113503,39.6281455 L78.4113503,39.6281455 Z M75.2830964,41.6639818 C71.3070051,41.6639818 69.1829645,38.5494727 69.1829645,35.7309091 C69.1829645,32.4367455 71.8583959,29.6181818 75.6603249,29.6181818 C79.3347817,29.6181818 81.634467,32.5127818 81.634467,35.5534909 C81.634467,38.5218909 79.362203,41.6639818 75.2830964,41.6639818 L75.2830964,41.6639818 Z M138.405492,35.7480545 C138.405492,32.8922182 136.925482,30.714 134.301188,30.714 C132.671472,30.714 131.112904,32.0028909 130.435523,33.1262909 L130.435523,38.3452182 C131.112904,39.4701091 132.671472,40.8052182 134.301188,40.8052182 C136.925482,40.8052182 138.405492,38.6083636 138.405492,35.7480545 L138.405492,35.7480545 Z M130.435523,39.7563636 L130.435523,46.1642909 L129.170437,46.1642909 L129.170437,29.8604545 L130.435523,29.8604545 L130.435523,31.7166364 C131.258904,30.5172 132.764853,29.5652545 134.514629,29.5652545 C137.651036,29.5652545 139.764701,31.9589091 139.764701,35.7480545 C139.764701,39.5118545 137.651036,41.9554545 134.514629,41.9554545 C132.86268,41.9554545 131.384152,41.0996727 130.435523,39.7563636 L130.435523,39.7563636 Z M148.767046,40.7001091 C149.841665,40.7001091 150.613909,40.4585818 151.403939,39.9807455 C152.187299,39.5051455 152.720904,38.8856727 153.001046,38.1357455 L153.001046,35.8695636 L150.036579,35.8695636 C148.904152,35.8695636 147.96664,36.1215273 147.229228,36.6306727 C146.490335,37.1375818 146.11533,37.7510909 146.11533,38.4644909 C146.11533,39.1368909 146.352487,39.6758545 146.824579,40.0836182 C147.297411,40.4951091 147.943665,40.7001091 148.767046,40.7001091 L148.767046,40.7001091 Z M153.256731,41.6267091 C153.172244,41.2174545 153.108508,40.8574 153.061817,40.5554909 C153.022538,40.2550727 153.001046,39.9479455 153.001046,39.6356 C152.566751,40.2759455 151.952365,40.8089455 151.168264,41.2293818 C150.38268,41.6513091 149.636376,41.8592909 148.612152,41.8592909 C147.379675,41.8592909 146.423635,41.5536545 145.740325,40.9349273 C145.05998,40.3169455 144.717584,39.4798 144.717584,38.4205091 C144.717584,37.3627091 145.213391,36.5039455 146.202041,35.8472 C147.19069,35.1874727 148.469117,34.8602182 150.05066,34.8602182 L153.001046,34.8602182 L153.001046,33.3931636 C153.001046,32.5485636 152.714234,31.8851091 152.143574,31.4028 C151.569949,30.9212364 150.765096,30.6774727 149.720863,30.6774727 C148.767046,30.6774727 147.99332,30.8996182 147.404132,31.3334727 C146.820132,31.7762727 146.52665,32.3249273 146.52665,32.9861455 L145.231919,32.9861455 L145.205239,32.9227818 C145.157807,32.0319636 145.563939,31.2492364 146.425858,30.5746 C147.28333,29.8999636 148.408345,29.5600364 149.79201,29.5600364 C151.170487,29.5600364 152.286609,29.8947455 153.128518,30.5604364 C153.968944,31.2201636 154.39064,32.1736 154.39064,33.42 L154.39064,39.2427455 C154.39064,39.6602 154.41065,40.0642364 154.462528,40.4585818 C154.515888,40.8529273 154.600376,41.2457818 154.714508,41.6267091 L153.256731,41.6267091 L153.256731,41.6267091 Z M98.5815838,11.9837091 C98.5815838,10.337 97.5499492,9.10849091 95.9602538,9.10849091 C94.3587005,9.10849091 93.3381827,10.337 93.3381827,11.9837091 C93.3381827,13.6184909 94.3587005,14.8596727 95.9602538,14.8596727 C97.5499492,14.8596727 98.5815838,13.6184909 98.5815838,11.9837091 L98.5815838,11.9837091 Z M91.9144975,11.9837091 C91.9144975,9.60943636 93.587198,7.86730909 95.9602538,7.86730909 C98.3207107,7.86730909 100.005269,9.60943636 100.005269,11.9837091 C100.005269,14.3587273 98.3207107,16.1008545 95.9602538,16.1008545 C93.587198,16.1008545 91.9144975,14.3587273 91.9144975,11.9837091 Z M38.977269,31.0017455 L23.1640609,22.2560727 C22.7164264,22.0093273 22.3021421,21.9511818 21.9671574,22.0562909 L34.9203959,35.0838545 L38.977269,31.0017455 Z M38.9987614,39.1860909 L44.3963147,36.2005455 C45.4909442,35.5922545 45.4909442,34.6037818 44.3963147,33.9984727 L38.9787513,31.0017455 L34.9203959,35.0838545 L38.9987614,39.1860909 Z M21.9671574,22.0562909 C21.4861726,22.2076182 21.1741624,22.6973818 21.1741624,23.4391091 L21.177868,46.7599091 C21.177868,47.4919455 21.4795025,47.975 21.9464061,48.1352727 L34.9203959,35.0860909 L21.9671574,22.0562909 Z M21.9464061,48.1352727 C22.2828731,48.2508182 22.7053096,48.1964 23.1640609,47.9436909 L38.9965381,39.1860909 L34.9203959,35.0860909 L21.9464061,48.1352727 Z" id="Content" fill="#FFFFFF" sketch:type="MSShapeGroup"></path>
        </g>
    </g>
</svg>