<?xml version="1.0" encoding="UTF-8" standalone="no"?>
<svg width="179px" height="91px" viewBox="0 0 179 91" version="1.1" xmlns="http://www.w3.org/2000/svg" xmlns:xlink="http://www.w3.org/1999/xlink" xmlns:sketch="http://www.bohemiancoding.com/sketch/ns">
    <title>Untitled</title>
    <description>Created with Sketch (http://www.bohemiancoding.com/sketch)</description>
    <defs></defs>
    <g id="Page-1" stroke="none" stroke-width="1" fill="none" fill-rule="evenodd" sketch:type="MSPage">
        <path d="M59.7651801,1.04253419 C42.1744864,4.32904683 20.0599389,12.7562389 7.83349601,20.8320407 C1.93468428,24.7283167 0.0395442743,26.8696144 0.000734209521,29.682008 C-0.0518820587,33.4971646 2.72246497,36.977982 8.66218633,40.5491442 C13.6926706,43.5735935 19.6614041,45.1856109 41.5338659,49.4268511 C54.4454655,51.9304821 75.8251031,57.3867318 82.8443805,59.9696371 C91.5954775,63.1897272 91.8189853,63.2811536 92.4259492,63.8881175 C92.7918454,64.2540137 92.8655209,65.6130022 92.6241351,67.5448527 L92.2400427,70.6191888 L88.0187164,72.7682039 C77.203433,78.2741115 55.5935435,84.7102454 41.4157179,86.6481019 C30.6653935,88.1174828 13.1343783,88.9018596 12.1883034,87.9558038 C11.2783664,87.045886 12.1648265,86.768165 18.968549,85.8314554 C25.4478575,84.9394093 27.7222545,84.3209168 27.7222545,83.4509669 C27.7222545,82.5551924 26.3391529,82.377366 23.2671136,82.8781558 C14.110356,84.3708736 12.2747035,84.7814714 9.62900231,85.9287414 C6.4962666,87.2871955 5.95877901,88.4537879 7.96964936,89.5299973 C9.2509541,90.2157139 23.1612448,90.5169246 31.8657061,90.0474373 C44.1269508,89.3861138 63.3612826,85.1960774 76.3391137,80.3592872 C77.7064369,79.8496792 79.9439325,79.0781478 81.3113193,78.644773 C84.3862216,77.670195 85.7644879,77.002522 89.4915266,74.6820936 C92.60034,72.7465784 92.9857685,72.7807504 94.9962571,75.1700316 C96.5603027,77.0288428 99.3728872,78.0070028 102.453961,77.7636955 C104.631651,77.5917224 104.80267,77.6799866 104.961982,79.0579857 C105.168375,80.8439358 106.567383,82.2591035 106.975015,81.0942607 C107.119949,80.680221 107.309291,79.3470252 107.395946,78.1316022 C107.612391,75.0933912 108.465449,75.4970923 109.671997,79.2087087 C111.451406,84.6825693 116.235924,88.3850304 118.306346,85.8903067 C119.223536,84.7851679 118.556384,83.9324853 116.774557,83.9324662 C115.01627,83.9324471 112.604765,81.2116389 111.44199,77.9160345 C111.025768,76.7363358 110.286214,74.9994709 109.798479,74.056329 C109.310809,73.1131936 108.564065,70.3499488 108.139127,67.9157751 C107.357963,63.4413564 105.762678,60.0090833 104.182218,59.4026284 C103.707717,59.2205392 102.115868,59.0715976 100.644776,59.0715976 C98.5977039,59.0715976 97.5848248,59.3956935 96.3285876,60.4527269 C94.2923316,62.1661595 93.6617635,62.1710585 90.6346421,60.4967541 C83.8564324,56.7478291 60.3818784,50.3868594 37.3903507,46.0691443 C18.9380735,42.6037872 12.3426529,40.5295483 6.81870825,36.4543007 C3.79451348,34.2231673 1.98984547,30.5430824 2.91950558,28.5027546 C4.37660083,25.3048053 17.2063175,17.6329462 29.3796352,12.6803365 C43.4769777,6.9448452 65.9228741,1.69371618 72.9619383,2.48435991 C81.4531987,3.43806953 85.5920058,6.95317982 82.7100086,10.7634375 C81.6351606,12.1845857 81.6611188,13.021038 82.7937365,13.4556471 C84.1629047,13.9810463 85.7666511,12.0780171 86.109643,9.52075191 C87.1583418,1.70173268 75.8005446,-1.95347557 59.7651801,1.04253419 M103.529509,62.2482332 C105.14159,64.0963558 105.655473,65.7164533 105.984977,69.9887352 C106.395664,75.3146341 105.889606,75.9622468 101.704609,75.4665914 C98.5088225,75.0880978 95.3809221,73.3769939 94.9629186,71.7785854 C94.8006162,71.1579107 95.1407451,70.097308 95.7508902,69.3216538 C96.6230987,68.2127676 96.7575342,67.4526629 96.4677948,65.2682289 C96.1130326,62.5942154 96.1211764,62.5764646 97.9649726,61.9869333 C100.768523,61.0906117 102.594504,61.1763756 103.529509,62.2482332 M153.234831,62.8849728 C151.806557,64.374643 149.402942,67.4200879 147.893421,69.6526846 C146.3839,71.8852431 144.907337,73.8809966 144.612189,74.0876889 C143.535242,74.8418511 142.330412,73.4529153 141.092562,70.0304338 C138.769938,63.6084306 137.600101,62.2137495 136.613944,64.6909132 C136.332285,65.3984653 135.175108,68.3998194 134.042491,71.3605629 C130.700817,80.0956014 129.938549,79.9355449 126.897494,69.8603121 C124.877271,63.1670138 124.118821,61.8825279 122.903938,63.0969648 C122.377776,63.6229366 122.7424,65.2823532 124.59453,70.7901249 C127.168974,78.4460782 128.202848,80.0652278 130.517137,80.0652278 C133.115757,80.0652278 135.362733,76.4484415 136.805322,69.9435056 C137.29681,67.7273236 138.148214,68.3167276 139.278605,71.6557611 C140.488206,75.2288447 141.81462,76.750441 143.719812,76.750441 C145.742453,76.750441 146.275487,76.2261807 151.443588,69.1540707 C153.94162,65.7356675 156.311324,62.9387979 156.709668,62.9387979 C157.108012,62.9387979 158.097987,64.6169196 158.909626,66.6679361 C163.702351,78.7788459 174.56567,92.3357805 178.322421,90.8941775 C179.664295,90.3792443 179.180314,89.5558537 176.473344,87.7482909 C171.277058,84.278582 166.151966,76.739447 160.640619,64.4581165 C158.213463,59.0495204 157.13238,58.8199048 153.234831,62.8849728" id="Fill-141" fill="#000000" sketch:type="MSShapeGroup"></path>
    </g>
</svg>