<?xml version="1.0" encoding="utf-8"?>
<!-- Generator: Adobe Illustrator 17.0.0, SVG Export Plug-In . SVG Version: 6.00 Build 0)  -->
<!DOCTYPE svg PUBLIC "-//W3C//DTD SVG 1.1//EN" "http://www.w3.org/Graphics/SVG/1.1/DTD/svg11.dtd">
<svg version="1.1" id="Layer_1" xmlns="http://www.w3.org/2000/svg" xmlns:xlink="http://www.w3.org/1999/xlink" x="0px" y="0px"
	 width="512px" height="512px" viewBox="0 0 512 512" enable-background="new 0 0 512 512" xml:space="preserve">
<g>
	<g>
		<linearGradient id="SVGID_1_" gradientUnits="userSpaceOnUse" x1="256" y1="512" x2="256" y2="-3.479727e-09">
			<stop  offset="0" style="stop-color:#EDFBF0"/>
			<stop  offset="1" style="stop-color:#FFFFFF"/>
		</linearGradient>
		<path fill="url(#SVGID_1_)" d="M438.26,8.747C410.593,0,384.895,0,333.495,0h-154.99c-51.4,0-77.099,0-104.764,8.747
			C43.535,19.742,19.742,43.535,8.747,73.741C0,101.406,0,127.105,0,178.505v154.99c0,51.4,0,77.098,8.748,104.765
			c10.994,30.205,34.787,53.999,64.993,64.992C101.406,512,127.105,512,178.505,512h154.99c51.4,0,77.098,0,104.765-8.748
			c30.205-10.994,53.998-34.787,64.993-64.992C512,410.593,512,384.895,512,333.495v-154.99c0-51.4,0-77.099-8.747-104.765
			C492.258,43.535,468.465,19.741,438.26,8.747z"/>
	</g>
</g>
<path fill="#53D769" d="M255.512,99.205l-0.006-0.862L255.512,99.205c-0.812,1.741-11.33,17.974-28.732,17.974
	c-18.434,0-32.853-7.009-52.165,6.789c-19.318,13.796-15.315,38.099-15.315,38.099s-11.991-2.414-25.75,4.37
	c-13.763,6.794-20.866,23.216-20.866,33.284c0,10.071,1.774,14.234,1.774,23.65c0,9.403-3.541,26.236-17.931,33.036
	c0,0-0.031,0.015-0.019,0.015c-0.013,0,0.019,0.02,0.019,0.02c14.389,6.8,17.931,23.626,17.931,33.037
	c0,9.413-1.774,13.57-1.774,23.647c0,10.057,7.103,26.491,20.866,33.284c13.759,6.786,25.75,4.369,25.75,4.369
	s-4.003,24.304,15.315,38.1c19.311,13.792,33.731,6.792,52.165,6.792c17.401,0,27.652,16.19,28.732,17.951v0.024
	c0-0.014,0-0.014,0-0.014s0.005,0,0.005,0.014v-0.024c1.068-1.761,11.309-17.951,28.727-17.951c18.423,0,32.84,7.001,52.16-6.792
	c19.309-13.796,15.319-38.1,15.319-38.1s11.977,2.416,25.736-4.369c13.766-6.793,20.865-23.227,20.865-33.284
	c0-10.076-1.77-14.234-1.77-23.647c0-9.411,3.547-26.238,17.927-33.037c0,0,0.035-0.02,0.021-0.02c0.014,0-0.021-0.021-0.021-0.021
	c-14.38-6.794-17.927-23.627-17.927-33.03c0-9.416,1.77-13.58,1.77-23.65c0-10.067-7.099-26.49-20.865-33.284
	c-13.759-6.785-25.736-4.37-25.736-4.37s3.989-24.303-15.319-38.099c-19.321-13.798-33.738-6.789-52.16-6.789
	c-17.418,0-27.31-16.345-28.727-17.974"/>
<path fill="#FFFFFF" d="M255.511,114.747l-0.006-0.776L255.511,114.747c-0.73,1.567-10.191,16.174-25.843,16.174
	c-16.58,0-29.55-6.307-46.919,6.109c-17.375,12.414-13.775,34.284-13.775,34.284s-10.785-2.173-23.16,3.933
	c-12.379,6.114-18.768,20.892-18.768,29.95c0,9.062,1.595,12.809,1.595,21.282c0,8.462-3.185,23.609-16.128,29.728
	c0,0-0.028,0.014-0.017,0.014c-0.011,0,0.017,0.018,0.017,0.018c12.942,6.119,16.128,21.26,16.128,29.729
	c0,8.47-1.595,12.211-1.595,21.279c0,9.049,6.389,23.838,18.768,29.95c12.375,6.106,23.16,3.932,23.16,3.932
	s-3.6,21.871,13.775,34.285c17.369,12.411,30.339,6.112,46.919,6.112c15.652,0,24.872,14.569,25.843,16.154v0.022
	c0-0.012,0-0.012,0-0.012s0.004,0,0.004,0.012v-0.022c0.96-1.585,10.172-16.154,25.838-16.154c16.57,0,29.537,6.3,46.915-6.112
	c17.367-12.414,13.779-34.285,13.779-34.285s10.773,2.174,23.148-3.932c12.381-6.112,18.767-20.901,18.767-29.95
	c0-9.067-1.592-12.809-1.592-21.279c0-8.469,3.19-23.61,16.124-29.729c0,0,0.031-0.018,0.019-0.018c0.013,0-0.019-0.019-0.019-0.019
	c-12.934-6.113-16.124-21.261-16.124-29.723c0-8.473,1.592-12.22,1.592-21.282c0-9.059-6.385-23.837-18.767-29.95
	c-12.375-6.105-23.148-3.933-23.148-3.933s3.588-21.87-13.779-34.284c-17.378-12.416-30.345-6.109-46.915-6.109
	c-15.666,0-24.564-14.708-25.838-16.174"/>
<path fill="#53D769" d="M255.51,133.702l-0.005-0.673L255.51,133.702c-0.633,1.358-8.83,14.02-22.391,14.02
	c-14.366,0-25.604-5.467-40.654,5.295c-15.055,10.76-11.935,29.716-11.935,29.716s-9.345-1.883-20.067,3.409
	c-10.726,5.299-16.262,18.108-16.262,25.96c0,7.855,1.382,11.102,1.382,18.446c0,7.334-2.76,20.464-13.974,25.767
	c0,0-0.024,0.012-0.014,0.012c-0.01,0,0.014,0.015,0.014,0.015c11.214,5.303,13.974,18.427,13.974,25.768
	c0,7.342-1.382,10.584-1.382,18.444c0,7.844,5.535,20.662,16.262,25.96c10.723,5.293,20.067,3.408,20.067,3.408
	s-3.12,18.957,11.935,29.717c15.05,10.758,26.287,5.297,40.654,5.297c13.561,0,21.55,12.628,22.391,14.001v0.019
	c0-0.011,0-0.011,0-0.011s0.004,0,0.004,0.011v-0.019c0.832-1.374,8.814-14.001,22.388-14.001c14.357,0,25.593,5.46,40.65-5.297
	c15.048-10.76,11.939-29.717,11.939-29.717s9.334,1.885,20.057-3.408c10.728-5.298,16.261-18.116,16.261-25.96
	c0-7.859-1.38-11.102-1.38-18.444c0-7.341,2.764-20.465,13.971-25.768c0,0,0.027-0.015,0.016-0.015c0.011,0-0.016-0.016-0.016-0.016
	c-11.207-5.299-13.971-18.428-13.971-25.763c0-7.344,1.38-10.592,1.38-18.446c0-7.852-5.533-20.661-16.261-25.96
	c-10.723-5.292-20.057-3.409-20.057-3.409s3.109-18.956-11.939-29.716c-15.057-10.762-26.293-5.295-40.65-5.295
	c-13.574,0-21.284-12.748-22.388-14.02"/>
<path fill="#FFFFFF" d="M313.116,280.469c-20.506,0-30.623-8.125-30.623-23.569c0-16.649,11.642-24.485,30.623-24.485
	c19.674,0,30.666,7.836,30.666,24.082C343.782,271.432,333.898,280.469,313.116,280.469z M313.116,234.7
	c-3.326,0-4.848,5.551-4.848,22.144c0,17.048,1.336,21.337,4.848,21.337c3.326,0,4.848-5.376,4.848-21.337
	C317.964,239.163,316.628,234.7,313.116,234.7z"/>
<path fill="#FFFFFF" d="M250.071,280.469c-20.506,0-30.623-8.125-30.623-23.569c0-16.649,11.642-24.485,30.623-24.485
	c19.674,0,30.666,7.836,30.666,24.082C280.737,271.432,270.853,280.469,250.071,280.469z M250.071,234.7
	c-3.326,0-4.848,5.551-4.848,22.144c0,17.048,1.336,21.337,4.848,21.337c3.326,0,4.847-5.376,4.847-21.337
	C254.918,239.163,253.582,234.7,250.071,234.7z"/>
<path fill="#FFFFFF" d="M197.296,279.211c-8.131,0-22.263,0.285-30.39,0.285v-2.46c11.591,0,16.442-5.665,16.442-16.649V249.06
	c-4.063,1.087-10.298,1.144-13.948,1.144v-2.859c14.409,0,18.381-5.148,21.708-13.961c2.956,0,8.079,0.289,11.035,0.289
	s8.084-0.289,11.039-0.289c0,0-1.431,8.068-1.431,21.341c0,12.813,3.602,22.31,15.934,22.31v2.46
	C219.555,279.496,205.422,279.211,197.296,279.211z"/>
</svg>
