<?xml version="1.0" encoding="UTF-8" standalone="no"?>
<svg width="186px" height="55px" viewBox="0 0 186 55" version="1.1" xmlns="http://www.w3.org/2000/svg" xmlns:xlink="http://www.w3.org/1999/xlink" xmlns:sketch="http://www.bohemiancoding.com/sketch/ns">
    <!-- Generator: "Sketch Internal" 3.0 (7561) - http://www.bohemiancoding.com/sketch -->
    <title>App Store</title>
    <description>Created with "Sketch Internal".</description>
    <defs></defs>
    <g id="Page-1" stroke="none" stroke-width="1" fill="none" fill-rule="evenodd" sketch:type="MSPage">
        <g id="App-Store" sketch:type="MSLayerGroup">
            <rect id="Background" fill="#21739F" sketch:type="MSShapeGroup" x="0" y="0" width="186" height="55" rx="8"></rect>
            <path d="M41.51,27.211 C41.47,22.779 45.146,20.623 45.314,20.523 C43.232,17.494 40.005,17.08 38.872,17.047 C36.162,16.762 33.533,18.665 32.153,18.665 C30.745,18.665 28.619,17.074 26.328,17.121 C23.38,17.166 20.621,18.87 19.108,21.516 C15.986,26.91 18.314,34.837 21.306,39.197 C22.802,41.334 24.551,43.717 26.839,43.633 C29.078,43.542 29.914,42.21 32.616,42.21 C35.293,42.21 36.078,43.633 38.412,43.579 C40.815,43.542 42.328,41.434 43.772,39.279 C45.501,36.833 46.196,34.421 46.223,34.297 C46.167,34.278 41.557,32.521 41.51,27.211 L41.51,27.211 L41.51,27.211 Z M37.101,14.178 C38.305,12.675 39.129,10.63 38.9,8.556 C37.157,8.633 34.977,9.759 33.722,11.229 C32.612,12.524 31.62,14.647 31.876,16.644 C33.834,16.789 35.844,15.658 37.101,14.178 L37.101,14.178 L37.101,14.178 Z M73.938,43.326 L70.809,43.326 L69.095,37.951 L63.137,37.951 L61.504,43.326 L58.458,43.326 L64.362,25.028 L68.008,25.028 L73.938,43.326 L73.938,43.326 Z M68.579,35.696 L67.029,30.918 C66.865,30.43 66.556,29.28 66.105,27.471 L66.05,27.471 C65.868,28.249 65.577,29.399 65.179,30.918 L63.655,35.696 L68.579,35.696 L68.579,35.696 Z M89.091,36.566 C89.091,38.81 88.481,40.584 87.259,41.886 C86.165,43.045 84.805,43.624 83.184,43.624 C81.433,43.624 80.174,43.001 79.409,41.753 L79.409,48.676 L76.472,48.676 L76.472,34.468 C76.472,33.059 76.435,31.614 76.363,30.131 L78.946,30.131 L79.11,32.222 L79.165,32.222 C80.145,30.646 81.631,29.858 83.626,29.858 C85.186,29.858 86.488,30.473 87.529,31.703 C88.569,32.937 89.091,34.557 89.091,36.566 L89.091,36.566 L89.091,36.566 Z M86.099,36.673 C86.099,35.389 85.81,34.33 85.228,33.495 C84.593,32.627 83.74,32.193 82.671,32.193 C81.946,32.193 81.288,32.435 80.699,32.912 C80.109,33.393 79.724,34.022 79.543,34.8 C79.452,35.163 79.407,35.459 79.407,35.692 L79.407,37.893 C79.407,38.851 79.702,39.661 80.292,40.324 C80.882,40.984 81.648,41.315 82.59,41.315 C83.696,41.315 84.557,40.887 85.173,40.039 C85.79,39.19 86.099,38.068 86.099,36.673 L86.099,36.673 L86.099,36.673 Z M104.298,36.566 C104.298,38.81 103.688,40.584 102.466,41.886 C101.371,43.045 100.012,43.624 98.389,43.624 C96.638,43.624 95.379,43.001 94.614,41.753 L94.614,48.676 L91.677,48.676 L91.677,34.468 C91.677,33.059 91.64,31.614 91.568,30.131 L94.151,30.131 L94.315,32.222 L94.37,32.222 C95.348,30.646 96.835,29.858 98.831,29.858 C100.389,29.858 101.691,30.473 102.736,31.703 C103.774,32.937 104.298,34.557 104.298,36.566 L104.298,36.566 L104.298,36.566 Z M101.304,36.673 C101.304,35.389 101.013,34.33 100.432,33.495 C99.797,32.627 98.947,32.193 97.878,32.193 C97.153,32.193 96.495,32.435 95.904,32.912 C95.314,33.393 94.93,34.022 94.749,34.8 C94.659,35.163 94.611,35.459 94.611,35.692 L94.611,37.893 C94.611,38.851 94.907,39.661 95.494,40.324 C96.084,40.983 96.85,41.315 97.795,41.315 C98.903,41.315 99.764,40.887 100.378,40.039 C100.995,39.19 101.304,38.068 101.304,36.673 L101.304,36.673 L101.304,36.673 Z M121.3,38.193 C121.3,39.751 120.754,41.017 119.67,41.995 C118.477,43.062 116.811,43.597 114.676,43.597 C112.703,43.597 111.121,43.218 109.928,42.457 L110.607,40.014 C111.895,40.776 113.31,41.155 114.851,41.155 C115.959,41.155 116.82,40.905 117.434,40.408 C118.05,39.91 118.361,39.245 118.361,38.414 C118.361,37.67 118.103,37.047 117.598,36.54 C117.09,36.034 116.249,35.562 115.068,35.129 C111.858,33.934 110.251,32.186 110.251,29.888 C110.251,28.387 110.819,27.157 111.951,26.196 C113.084,25.236 114.585,24.756 116.454,24.756 C118.122,24.756 119.513,25.046 120.616,25.625 L119.879,28.015 C118.84,27.454 117.668,27.174 116.356,27.174 C115.32,27.174 114.507,27.428 113.926,27.934 C113.437,28.386 113.189,28.938 113.189,29.592 C113.189,30.314 113.471,30.913 114.034,31.384 C114.522,31.817 115.412,32.289 116.699,32.795 C118.278,33.43 119.438,34.17 120.181,35.02 C120.928,35.869 121.3,36.929 121.3,38.193 L121.3,38.193 L121.3,38.193 Z M131.036,32.331 L127.798,32.331 L127.798,38.737 C127.798,40.366 128.368,41.179 129.512,41.179 C130.037,41.179 130.472,41.135 130.817,41.043 L130.898,43.269 C130.319,43.485 129.557,43.593 128.614,43.593 C127.454,43.593 126.547,43.24 125.893,42.533 C125.241,41.826 124.913,40.642 124.913,38.976 L124.913,32.325 L122.984,32.325 L122.984,30.125 L124.913,30.125 L124.913,27.709 L127.798,26.84 L127.798,30.125 L131.036,30.125 L131.036,32.331 L131.036,32.331 Z M145.616,36.62 C145.616,38.648 145.035,40.313 143.874,41.615 C142.66,42.956 141.045,43.624 139.032,43.624 C137.089,43.624 135.545,42.982 134.393,41.699 C133.241,40.413 132.665,38.794 132.665,36.84 C132.665,34.795 133.26,33.121 134.446,31.818 C135.635,30.515 137.236,29.863 139.249,29.863 C141.189,29.863 142.747,30.506 143.927,31.791 C145.055,33.036 145.616,34.645 145.616,36.62 L145.616,36.62 L145.616,36.62 Z M142.571,36.687 C142.571,35.478 142.309,34.442 141.784,33.574 C141.168,32.526 140.286,32.002 139.144,32.002 C137.967,32.002 137.065,32.526 136.45,33.574 C135.924,34.442 135.662,35.496 135.662,36.742 C135.662,37.952 135.924,38.992 136.45,39.856 C137.085,40.904 137.971,41.428 139.119,41.428 C140.242,41.428 141.122,40.893 141.759,39.83 C142.3,38.942 142.571,37.898 142.571,36.687 L142.571,36.687 L142.571,36.687 Z M155.168,32.709 C154.877,32.655 154.566,32.628 154.242,32.628 C153.209,32.628 152.41,33.016 151.847,33.797 C151.359,34.485 151.114,35.353 151.114,36.403 L151.114,43.326 L148.177,43.326 L148.177,34.287 C148.177,32.768 148.148,31.382 148.092,30.133 L150.651,30.133 L150.758,32.658 L150.839,32.658 C151.15,31.79 151.638,31.09 152.308,30.567 C152.962,30.095 153.669,29.86 154.431,29.86 C154.702,29.86 154.948,29.879 155.165,29.914 L155.168,32.709 L155.168,32.709 Z M168.305,36.104 C168.305,36.629 168.271,37.072 168.198,37.434 L159.386,37.434 C159.419,38.737 159.846,39.736 160.665,40.423 C161.408,41.036 162.368,41.344 163.547,41.344 C164.852,41.344 166.042,41.138 167.113,40.721 L167.573,42.755 C166.322,43.299 164.845,43.57 163.141,43.57 C161.091,43.57 159.482,42.968 158.311,41.766 C157.143,40.563 156.557,38.946 156.557,36.92 C156.557,34.932 157.101,33.275 158.191,31.954 C159.332,30.543 160.874,29.838 162.813,29.838 C164.718,29.838 166.161,30.543 167.141,31.954 C167.915,33.072 168.305,34.458 168.305,36.104 L168.305,36.104 L168.305,36.104 Z M165.504,35.344 C165.525,34.474 165.332,33.724 164.934,33.09 C164.426,32.273 163.643,31.866 162.595,31.866 C161.635,31.866 160.852,32.263 160.257,33.061 C159.768,33.695 159.477,34.457 159.388,35.341 L165.504,35.344 L165.504,35.344 Z M62.291,18.558 C61.474,18.558 60.767,18.518 60.179,18.451 L60.179,9.604 C60.941,9.484 61.769,9.417 62.666,9.417 C66.035,9.417 67.586,11.071 67.586,13.767 C67.586,16.877 65.753,18.558 62.291,18.558 L62.291,18.558 L62.291,18.558 Z M62.784,10.551 C62.329,10.551 61.942,10.578 61.621,10.645 L61.621,17.37 C61.795,17.397 62.128,17.41 62.596,17.41 C64.803,17.41 66.06,16.156 66.06,13.807 C66.06,11.713 64.924,10.551 62.784,10.551 L62.784,10.551 L62.784,10.551 Z M72.42,18.625 C70.521,18.625 69.291,17.21 69.291,15.289 C69.291,13.287 70.548,11.86 72.527,11.86 C74.398,11.86 75.656,13.207 75.656,15.183 C75.657,17.21 74.36,18.625 72.42,18.625 L72.42,18.625 L72.42,18.625 Z M72.475,12.913 C71.432,12.913 70.764,13.887 70.764,15.248 C70.764,16.583 71.446,17.557 72.461,17.557 C73.476,17.557 74.158,16.516 74.158,15.221 C74.159,13.901 73.491,12.913 72.475,12.913 L72.475,12.913 L72.475,12.913 Z M86.483,11.993 L84.451,18.477 L83.127,18.477 L82.285,15.661 C82.071,14.954 81.898,14.26 81.763,13.567 L81.735,13.567 C81.629,14.274 81.428,14.982 81.214,15.661 L80.318,18.477 L78.98,18.477 L77.068,11.993 L78.552,11.993 L79.288,15.076 C79.462,15.81 79.608,16.503 79.729,17.158 L79.757,17.158 C79.863,16.612 80.037,15.93 80.292,15.09 L81.215,11.995 L82.392,11.995 L83.275,15.024 C83.489,15.758 83.662,16.479 83.797,17.159 L83.836,17.159 C83.93,16.492 84.077,15.784 84.277,15.024 L85.066,11.995 L86.483,11.993 L86.483,11.993 Z M93.964,18.478 L92.52,18.478 L92.52,14.754 C92.52,13.607 92.079,13.033 91.21,13.033 C90.354,13.033 89.766,13.767 89.766,14.621 L89.766,18.478 L88.322,18.478 L88.322,13.847 C88.322,13.274 88.308,12.659 88.268,11.992 L89.538,11.992 L89.606,12.993 L89.646,12.993 C90.035,12.3 90.823,11.86 91.706,11.86 C93.07,11.86 93.966,12.901 93.966,14.595 L93.964,18.478 L93.964,18.478 Z M97.946,18.478 L96.501,18.478 L96.501,9.018 L97.946,9.018 L97.946,18.478 L97.946,18.478 Z M103.211,18.625 C101.314,18.625 100.082,17.21 100.082,15.289 C100.082,13.287 101.339,11.86 103.317,11.86 C105.189,11.86 106.446,13.207 106.446,15.183 C106.447,17.21 105.149,18.625 103.211,18.625 L103.211,18.625 L103.211,18.625 Z M103.264,12.913 C102.221,12.913 101.553,13.887 101.553,15.248 C101.553,16.583 102.236,17.557 103.249,17.557 C104.266,17.557 104.946,16.516 104.946,15.221 C104.948,13.901 104.281,12.913 103.264,12.913 L103.264,12.913 L103.264,12.913 Z M112.139,18.478 L112.034,17.731 L111.995,17.731 C111.554,18.332 110.911,18.625 110.095,18.625 C108.931,18.625 108.104,17.811 108.104,16.716 C108.104,15.116 109.494,14.288 111.901,14.288 L111.901,14.168 C111.901,13.314 111.448,12.886 110.552,12.886 C109.911,12.886 109.349,13.047 108.855,13.367 L108.562,12.42 C109.163,12.046 109.912,11.859 110.793,11.859 C112.49,11.859 113.347,12.753 113.347,14.542 L113.347,16.93 C113.347,17.585 113.376,18.092 113.441,18.478 L112.139,18.478 L112.139,18.478 Z M111.94,15.248 C110.336,15.248 109.532,15.636 109.532,16.556 C109.532,17.237 109.947,17.569 110.523,17.569 C111.257,17.569 111.941,17.009 111.941,16.249 L111.941,15.248 L111.94,15.248 L111.94,15.248 Z M120.359,18.478 L120.291,17.437 L120.251,17.437 C119.836,18.223 119.139,18.625 118.165,18.625 C116.598,18.625 115.438,17.25 115.438,15.315 C115.438,13.287 116.641,11.858 118.283,11.858 C119.152,11.858 119.768,12.151 120.115,12.739 L120.144,12.739 L120.144,9.017 L121.589,9.017 L121.589,16.729 C121.589,17.356 121.604,17.943 121.643,18.477 C121.644,18.478 120.359,18.478 120.359,18.478 L120.359,18.478 L120.359,18.478 Z M120.145,14.662 C120.145,13.754 119.543,12.98 118.624,12.98 C117.553,12.98 116.899,13.927 116.899,15.261 C116.899,16.569 117.578,17.464 118.595,17.464 C119.503,17.464 120.145,16.676 120.145,15.743 L120.145,14.662 L120.145,14.662 L120.145,14.662 Z M130.754,18.625 C128.857,18.625 127.626,17.21 127.626,15.289 C127.626,13.287 128.883,11.86 130.861,11.86 C132.733,11.86 133.99,13.207 133.99,15.183 C133.992,17.21 132.695,18.625 130.754,18.625 L130.754,18.625 L130.754,18.625 Z M130.808,12.913 C129.766,12.913 129.098,13.887 129.098,15.248 C129.098,16.583 129.78,17.557 130.794,17.557 C131.811,17.557 132.491,16.516 132.491,15.221 C132.494,13.901 131.826,12.913 130.808,12.913 L130.808,12.913 L130.808,12.913 Z M141.755,18.478 L140.31,18.478 L140.31,14.754 C140.31,13.607 139.869,13.033 139,13.033 C138.144,13.033 137.557,13.767 137.557,14.621 L137.557,18.478 L136.112,18.478 L136.112,13.847 C136.112,13.274 136.098,12.659 136.058,11.992 L137.328,11.992 L137.396,12.993 L137.436,12.993 C137.823,12.3 138.613,11.859 139.494,11.859 C140.858,11.859 141.755,12.9 141.755,14.594 L141.755,18.478 L141.755,18.478 Z M151.47,13.074 L149.881,13.074 L149.881,16.223 C149.881,17.025 150.159,17.425 150.721,17.425 C150.976,17.425 151.189,17.398 151.362,17.358 L151.402,18.453 C151.122,18.56 150.748,18.614 150.282,18.614 C149.144,18.614 148.463,17.987 148.463,16.345 L148.463,13.075 L147.515,13.075 L147.515,11.994 L148.463,11.994 L148.463,10.806 L149.881,10.378 L149.881,11.992 L151.47,11.992 L151.47,13.074 L151.47,13.074 Z M159.114,18.478 L157.671,18.478 L157.671,14.782 C157.671,13.621 157.231,13.034 156.361,13.034 C155.613,13.034 154.916,13.541 154.916,14.569 L154.916,18.478 L153.473,18.478 L153.473,9.018 L154.916,9.018 L154.916,12.913 L154.945,12.913 C155.4,12.206 156.058,11.858 156.899,11.858 C158.274,11.858 159.114,12.925 159.114,14.62 L159.114,18.478 L159.114,18.478 Z M166.945,15.582 L162.612,15.582 C162.64,16.81 163.454,17.503 164.659,17.503 C165.3,17.503 165.889,17.396 166.41,17.196 L166.635,18.197 C166.021,18.464 165.297,18.597 164.455,18.597 C162.423,18.597 161.22,17.316 161.22,15.329 C161.22,13.341 162.452,11.846 164.292,11.846 C165.952,11.846 166.994,13.074 166.994,14.929 C166.999,15.182 166.987,15.409 166.945,15.582 L166.945,15.582 L166.945,15.582 Z M165.621,14.555 C165.621,13.554 165.115,12.847 164.192,12.847 C163.363,12.847 162.707,13.567 162.613,14.555 L165.621,14.555 L165.621,14.555 Z" id="Content" fill="#FFFFFF" sketch:type="MSShapeGroup"></path>
        </g>
    </g>
</svg>